<svg width="20" height="20" viewBox="0 0 20 20" fill="none" xmlns="http://www.w3.org/2000/svg">
<g clip-path="url(#clip0_4106_21462)">
<path d="M19.5877 5.19872C19.3571 4.34194 18.6816 3.66659 17.825 3.43588C16.2599 3.00757 9.99956 3.00757 9.99956 3.00757C9.99956 3.00757 3.73936 3.00757 2.17428 3.41955C1.33413 3.65011 0.642148 4.3421 0.411589 5.19872C-0.000244141 6.76366 -0.000244141 10.0092 -0.000244141 10.0092C-0.000244141 10.0092 -0.000244141 13.271 0.411589 14.8197C0.642301 15.6763 1.31765 16.3518 2.17443 16.5825C3.75584 17.0108 9.99971 17.0108 9.99971 17.0108C9.99971 17.0108 16.2599 17.0108 17.825 16.5988C18.6818 16.3683 19.3571 15.6928 19.5878 14.8361C19.9997 13.271 19.9997 10.0257 19.9997 10.0257C19.9997 10.0257 20.0162 6.76366 19.5877 5.19872Z" fill="#767F8C"/>
<path d="M8.00635 13.0077L13.2122 10.0093L8.00635 7.01099V13.0077Z" fill="#18191C"/>
</g>
<defs>
<clipPath id="clip0_4106_21462">
<rect width="20" height="20" fill="white" transform="translate(-0.000244141)"/>
</clipPath>
</defs>
</svg>
