<svg width="20" height="20" viewBox="0 0 20 20" fill="none" xmlns="http://www.w3.org/2000/svg">
<g clip-path="url(#clip0_184_192)">
<path d="M19.5879 5.19872C19.3574 4.34194 18.6819 3.66659 17.8252 3.43588C16.2601 3.00757 9.99979 3.00757 9.99979 3.00757C9.99979 3.00757 3.73959 3.00757 2.17451 3.41955C1.33436 3.65011 0.642377 4.3421 0.411818 5.19872C-1.52588e-05 6.76366 -1.52588e-05 10.0092 -1.52588e-05 10.0092C-1.52588e-05 10.0092 -1.52588e-05 13.271 0.411818 14.8197C0.64253 15.6763 1.31788 16.3518 2.17466 16.5825C3.75607 17.0108 9.99994 17.0108 9.99994 17.0108C9.99994 17.0108 16.2601 17.0108 17.8252 16.5988C18.682 16.3683 19.3574 15.6928 19.5881 14.8361C19.9999 13.271 19.9999 10.0257 19.9999 10.0257C19.9999 10.0257 20.0164 6.76366 19.5879 5.19872Z" fill="#767F8C"/>
<path d="M8.00654 13.0077L13.2124 10.0093L8.00654 7.01099V13.0077Z" fill="#18191C"/>
</g>
<defs>
<clipPath id="clip0_184_192">
<rect width="20" height="20" fill="white"/>
</clipPath>
</defs>
</svg>
