<svg width="1984" height="1187" viewBox="0 0 1984 1187" fill="none" xmlns="http://www.w3.org/2000/svg">
<rect x="64" width="1920" height="1080" fill="#36384E"/>
<g clip-path="url(#clip0_211_939)">
<path d="M1704.57 -93.9164C1563.55 -71.6721 1490.14 -30.834 1484.33 28.5959C1475.62 117.741 1804.25 46.2782 1672.69 232.313C1541.13 418.347 1422.23 422.953 1484.33 538.918C1546.44 654.883 1713.2 715.761 1906.94 669.715C2036.09 639.017 2106.75 525.112 2118.91 327.999" stroke="#D0D5F6" stroke-width="2"/>
<path d="M1762.57 -93.9164C1651.95 -74.3801 1594.36 -38.5156 1589.81 13.6783C1582.97 91.9685 1840.77 29.2081 1737.56 192.589C1634.36 355.972 1541.09 360.015 1589.81 461.861C1638.52 563.706 1769.34 617.17 1921.32 576.731C2022.64 549.771 2078.06 449.736 2087.6 276.624" stroke="#D0D5F6" stroke-width="2"/>
<path d="M1812.62 -95.9741C1728.91 -78.9359 1685.33 -47.655 1681.88 -2.13246C1676.71 66.1509 1871.8 11.4127 1793.7 153.911C1715.6 296.41 1645.02 299.936 1681.88 388.763C1718.75 477.591 1817.75 524.221 1932.76 488.951C2009.43 465.437 2051.37 378.188 2058.59 227.204" stroke="#D0D5F6" stroke-width="2"/>
</g>
<path d="M379.389 1183.95C508.171 1165.53 575.213 1131.73 580.518 1082.53C588.474 1008.73 288.358 1067.89 408.503 913.88C528.649 759.872 637.234 756.059 580.518 660.058C523.801 564.057 371.504 513.658 194.58 551.778C76.6291 577.191 12.1024 671.487 1 834.667" stroke="#D0D5F6" stroke-width="2"/>
<path d="M326.419 1183.95C427.443 1167.77 480.036 1138.08 484.196 1094.88C490.438 1030.06 255.009 1082.02 349.259 946.765C443.508 811.509 528.687 808.162 484.196 723.849C439.705 639.537 320.235 595.277 181.444 628.754C88.9174 651.073 38.2987 733.886 29.5894 877.197" stroke="#D0D5F6" stroke-width="2"/>
<path d="M280.708 1185.65C357.16 1171.55 396.959 1145.65 400.109 1107.96C404.831 1051.44 226.669 1096.75 297.992 978.785C369.317 860.817 433.777 857.898 400.107 784.363C366.438 710.827 276.028 672.225 170.998 701.423C100.977 720.889 62.6719 793.117 56.0806 918.109" stroke="#D0D5F6" stroke-width="2"/>
<defs>
<clipPath id="clip0_211_939">
<rect width="518" height="677" fill="white" transform="translate(1466 10)"/>
</clipPath>
</defs>
</svg>
