<svg width="25" height="25" viewBox="0 0 25 25" fill="none" xmlns="http://www.w3.org/2000/svg">
<path d="M5.48856 10.9375C5.48599 10.015 5.66545 9.10115 6.01668 8.24818C6.3679 7.3952 6.88397 6.61991 7.53534 5.96673C8.1867 5.31355 8.96055 4.7953 9.81254 4.4417C10.6645 4.0881 11.5779 3.90608 12.5004 3.90608C13.4228 3.90608 14.3362 4.0881 15.1882 4.4417C16.0402 4.7953 16.814 5.31355 17.4654 5.96673C18.1168 6.61991 18.6329 7.3952 18.9841 8.24818C19.3353 9.10115 19.5148 10.015 19.5122 10.9375V10.9375C19.5122 14.4351 20.2439 16.4647 20.8885 17.574C20.9579 17.6926 20.9948 17.8273 20.9956 17.9647C20.9963 18.102 20.9608 18.2372 20.8926 18.3564C20.8245 18.4757 20.7261 18.5749 20.6074 18.644C20.4886 18.7131 20.3538 18.7496 20.2164 18.75H4.78354C4.64616 18.7496 4.5113 18.7131 4.39257 18.644C4.27384 18.5748 4.17543 18.4756 4.10728 18.3563C4.03913 18.2371 4.00365 18.1019 4.00441 17.9645C4.00517 17.8271 4.04214 17.6924 4.11161 17.5739C4.75646 16.4645 5.48856 14.4349 5.48856 10.9375H5.48856Z" stroke="#36384E" stroke-width="1.5" stroke-linecap="round" stroke-linejoin="round"/>
<path d="M9.375 18.75V19.5312C9.375 20.3601 9.70424 21.1549 10.2903 21.741C10.8763 22.327 11.6712 22.6562 12.5 22.6562C13.3288 22.6562 14.1237 22.327 14.7097 21.741C15.2958 21.1549 15.625 20.3601 15.625 19.5312V18.75" stroke="#36384E" stroke-width="1.5" stroke-linecap="round" stroke-linejoin="round"/>
<path d="M17.9131 2.34261C19.5028 3.34618 20.7843 4.7695 21.6161 6.45546" stroke="#36384E" stroke-width="1.5" stroke-linecap="round" stroke-linejoin="round"/>
<path d="M3.38379 6.45546C4.21558 4.76951 5.49706 3.34618 7.08677 2.34261" stroke="#36384E" stroke-width="1.5" stroke-linecap="round" stroke-linejoin="round"/>
</svg>
