<svg width="40" height="40" viewBox="0 0 40 40" fill="none" xmlns="http://www.w3.org/2000/svg">
<path d="M40 0H0V40H40V0Z" fill="white"/>
<path d="M8.7819 17.5C8.77778 16.0241 9.06492 14.5618 9.62688 13.1971C10.1888 11.8323 11.0146 10.5919 12.0567 9.54676C13.0989 8.50167 14.3371 7.67248 15.7003 7.10672C17.0634 6.54095 18.5249 6.24973 20.0008 6.24973C21.4767 6.24973 22.9381 6.54095 24.3013 7.10672C25.6645 7.67248 26.9027 8.50167 27.9449 9.54676C28.987 10.5919 29.8128 11.8323 30.3747 13.1971C30.9367 14.5618 31.2238 16.0241 31.2197 17.5C31.2197 23.0962 32.3905 26.3436 33.4217 28.1185C33.5328 28.3081 33.5919 28.5237 33.5931 28.7435C33.5943 28.9633 33.5375 29.1795 33.4284 29.3703C33.3194 29.5611 33.1619 29.7198 32.972 29.8304C32.782 29.9409 32.5663 29.9994 32.3465 30H7.65387C7.43405 29.9994 7.21828 29.9409 7.02831 29.8303C6.83834 29.7197 6.68089 29.561 6.57185 29.3702C6.46281 29.1793 6.40603 28.963 6.40725 28.7432C6.40846 28.5234 6.46762 28.3078 6.57877 28.1182C7.61053 26.3432 8.78189 23.0959 8.78189 17.5H8.7819Z" fill="#E7F6EA" stroke="#46B95D" stroke-width="2.5" stroke-linecap="round" stroke-linejoin="round"/>
<path d="M15 30V31.25C15 32.5761 15.5268 33.8479 16.4645 34.7855C17.4021 35.7232 18.6739 36.25 20 36.25C21.3261 36.25 22.5979 35.7232 23.5355 34.7855C24.4732 33.8479 25 32.5761 25 31.25V30" fill="#E7F6EA"/>
<path d="M15 30V31.25C15 32.5761 15.5268 33.8479 16.4645 34.7855C17.4021 35.7232 18.6739 36.25 20 36.25C21.3261 36.25 22.5979 35.7232 23.5355 34.7855C24.4732 33.8479 25 32.5761 25 31.25V30" stroke="#46B95D" stroke-width="2.5" stroke-linecap="round" stroke-linejoin="round"/>
<path d="M28.6611 3.74817C31.2047 5.35389 33.255 7.63121 34.5859 10.3287L28.6611 3.74817Z" fill="white"/>
<path d="M28.6611 3.74817C31.2047 5.35389 33.255 7.63121 34.5859 10.3287" stroke="#46B95D" stroke-width="2.5" stroke-linecap="round" stroke-linejoin="round"/>
<path d="M5.41406 10.3287C6.74493 7.63121 8.7953 5.35389 11.3388 3.74817L5.41406 10.3287Z" fill="white"/>
<path d="M5.41406 10.3287C6.74493 7.63121 8.7953 5.35389 11.3388 3.74817" stroke="#46B95D" stroke-width="2.5" stroke-linecap="round" stroke-linejoin="round"/>
</svg>
