<svg width="20" height="20" viewBox="0 0 20 20" fill="none" xmlns="http://www.w3.org/2000/svg">
<g clip-path="url(#clip0_184_195)">
<path d="M19.9804 5.88005C19.9335 4.81738 19.7617 4.0868 19.5155 3.45374C19.2616 2.78176 18.8709 2.18014 18.359 1.68002C17.8588 1.1721 17.2533 0.777435 16.5891 0.527447C15.9524 0.281274 15.2256 0.109427 14.1629 0.0625732C13.0923 0.0117516 12.7524 0 10.0371 0C7.32168 0 6.9818 0.0117516 5.91516 0.0586052C4.85248 0.105459 4.1219 0.277459 3.489 0.523479C2.81687 0.777435 2.21525 1.16814 1.71513 1.68002C1.20721 2.18014 0.812698 2.78573 0.562558 3.44992C0.316386 4.0868 0.144539 4.81341 0.0976855 5.87609C0.0468639 6.9467 0.0351124 7.28658 0.0351124 10.002C0.0351124 12.7173 0.0468639 13.0572 0.0937175 14.1239C0.140571 15.1865 0.312571 15.9171 0.558743 16.5502C0.812698 17.2221 1.20721 17.8238 1.71513 18.3239C2.21525 18.8318 2.82084 19.2265 3.48503 19.4765C4.1219 19.7226 4.84852 19.8945 5.91134 19.9413C6.97783 19.9883 7.31787 19.9999 10.0332 19.9999C12.7486 19.9999 13.0885 19.9883 14.1551 19.9413C15.2178 19.8945 15.9484 19.7226 16.5813 19.4765C17.9254 18.9568 18.9881 17.8941 19.5077 16.5502C19.7537 15.9133 19.9257 15.1865 19.9726 14.1239C20.0195 13.0572 20.0312 12.7173 20.0312 10.002C20.0312 7.28658 20.0272 6.9467 19.9804 5.88005ZM18.1793 14.0457C18.1363 15.0225 17.9722 15.5499 17.8355 15.9015C17.4994 16.7728 16.8079 17.4643 15.9366 17.8004C15.585 17.9372 15.0537 18.1012 14.0808 18.1441C13.0259 18.1911 12.7095 18.2027 10.041 18.2027C7.3725 18.2027 7.05216 18.1911 6.00108 18.1441C5.02433 18.1012 4.49688 17.9372 4.14525 17.8004C3.71167 17.6402 3.317 17.3862 2.99665 17.0541C2.66456 16.7298 2.4106 16.3391 2.25036 15.9055C2.11361 15.5539 1.94955 15.0225 1.90666 14.0497C1.85965 12.9948 1.84806 12.6783 1.84806 10.0097C1.84806 7.34122 1.85965 7.02087 1.90666 5.96995C1.94955 4.99319 2.11361 4.46575 2.25036 4.11412C2.4106 3.68038 2.66456 3.28586 3.00062 2.96536C3.32478 2.63327 3.71548 2.37931 4.14922 2.21921C4.50085 2.08247 5.03227 1.9184 6.00505 1.87537C7.05994 1.82851 7.37647 1.81676 10.0448 1.81676C12.7173 1.81676 13.0337 1.82851 14.0848 1.87537C15.0615 1.9184 15.589 2.08247 15.9406 2.21921C16.3742 2.37931 16.7689 2.63327 17.0892 2.96536C17.4213 3.28967 17.6753 3.68038 17.8355 4.11412C17.9722 4.46575 18.1363 4.99701 18.1793 5.96995C18.2262 7.02484 18.238 7.34122 18.238 10.0097C18.238 12.6783 18.2262 12.9908 18.1793 14.0457Z" fill="#767F8C"/>
<path d="M10.037 4.86401C7.20065 4.86401 4.89933 7.16518 4.89933 10.0017C4.89933 12.8383 7.20065 15.1395 10.037 15.1395C12.8736 15.1395 15.1748 12.8383 15.1748 10.0017C15.1748 7.16518 12.8736 4.86401 10.037 4.86401ZM10.037 13.3344C8.19694 13.3344 6.70434 11.842 6.70434 10.0017C6.70434 8.16147 8.19694 6.66902 10.037 6.66902C11.8773 6.66902 13.3698 8.16147 13.3698 10.0017C13.3698 11.842 11.8773 13.3344 10.037 13.3344Z" fill="#767F8C"/>
<path d="M16.5775 4.6611C16.5775 5.32346 16.0404 5.86052 15.3779 5.86052C14.7155 5.86052 14.1785 5.32346 14.1785 4.6611C14.1785 3.99858 14.7155 3.46167 15.3779 3.46167C16.0404 3.46167 16.5775 3.99858 16.5775 4.6611Z" fill="#767F8C"/>
</g>
<defs>
<clipPath id="clip0_184_195">
<rect width="20" height="20" fill="white"/>
</clipPath>
</defs>
</svg>
