<svg width="20" height="20" viewBox="0 0 20 20" fill="none" xmlns="http://www.w3.org/2000/svg">
<g clip-path="url(#clip0_4106_21469)">
<path d="M19.9998 3.79875C19.256 4.125 18.4635 4.34125 17.6373 4.44625C18.4873 3.93875 19.136 3.14125 19.441 2.18C18.6485 2.6525 17.7735 2.98625 16.841 3.1725C16.0885 2.37125 15.016 1.875 13.846 1.875C11.576 1.875 9.74851 3.7175 9.74851 5.97625C9.74851 6.30125 9.77601 6.61375 9.84351 6.91125C6.43476 6.745 3.41851 5.11125 1.39226 2.6225C1.03851 3.23625 0.831006 3.93875 0.831006 4.695C0.831006 6.115 1.56226 7.37375 2.65226 8.1025C1.99351 8.09 1.34726 7.89875 0.799756 7.5975C0.799756 7.61 0.799756 7.62625 0.799756 7.6425C0.799756 9.635 2.22101 11.29 4.08476 11.6712C3.75101 11.7625 3.38726 11.8062 3.00976 11.8062C2.74726 11.8062 2.48226 11.7913 2.23351 11.7362C2.76476 13.36 4.27226 14.5538 6.06476 14.5925C4.66976 15.6838 2.89851 16.3412 0.981006 16.3412C0.644756 16.3412 0.322256 16.3263 -0.000244141 16.285C1.81601 17.4563 3.96851 18.125 6.28976 18.125C13.8348 18.125 17.9598 11.875 17.9598 6.4575C17.9598 6.27625 17.9535 6.10125 17.9448 5.9275C18.7585 5.35 19.4423 4.62875 19.9998 3.79875Z" fill="#767F8C"/>
</g>
<defs>
<clipPath id="clip0_4106_21469">
<rect width="20" height="20" fill="white" transform="translate(-0.000244141)"/>
</clipPath>
</defs>
</svg>
