<svg width="1280" height="720" viewBox="0 0 1280 720" fill="none" xmlns="http://www.w3.org/2000/svg">
<rect width="1280" height="720" fill="#36384E"/>
<g clip-path="url(#clip0_13_35)">
<path d="M129.444 1092.63C202.74 1074.92 240.897 1042.41 243.916 995.109C248.444 924.152 77.6339 981.034 146.014 832.955C214.395 684.877 276.196 681.211 243.916 588.906C211.636 496.602 124.956 448.144 24.2602 484.796C-42.8714 509.23 -79.5966 599.896 -85.9155 756.792" stroke="#D0D5F6" stroke-width="2"/>
<path d="M99.296 1092.63C156.794 1077.07 186.727 1048.53 189.095 1006.98C192.647 944.666 58.6534 994.621 112.296 864.574C165.937 734.527 214.416 731.308 189.095 650.241C163.772 569.176 95.7764 526.62 16.7839 558.808C-35.8776 580.268 -64.6871 659.893 -69.644 797.685" stroke="#D0D5F6" stroke-width="2"/>
<path d="M73.2802 1094.26C116.792 1080.7 139.444 1055.8 141.237 1019.57C143.924 965.216 42.5235 1008.79 83.1172 895.361C123.712 781.936 160.399 779.129 141.236 708.426C122.073 637.721 70.6165 600.605 10.8384 628.679C-29.0136 647.395 -50.815 716.843 -54.5664 837.022" stroke="#D0D5F6" stroke-width="2"/>
</g>
<g clip-path="url(#clip1_13_35)">
<path d="M1136.47 -18.4656C1064.53 -4.49379 1027.08 21.1569 1024.12 58.4852C1019.67 114.478 1187.32 69.5916 1120.21 186.441C1053.09 303.291 992.437 306.184 1024.12 379.022C1055.8 451.86 1140.87 490.098 1239.7 461.176C1305.59 441.895 1341.64 370.35 1347.84 246.542" stroke="#D0D5F6" stroke-width="2"/>
<path d="M1166.06 -18.4656C1109.63 -6.1947 1080.25 16.332 1077.92 49.1153C1074.44 98.2899 1205.95 58.8697 1153.3 161.491C1100.65 264.112 1053.07 266.652 1077.92 330.622C1102.78 394.591 1169.51 428.173 1247.04 402.773C1298.73 385.839 1327 323.006 1331.87 214.273" stroke="#D0D5F6" stroke-width="2"/>
<path d="M1191.59 -19.7581C1148.89 -9.05627 1126.66 10.5915 1124.9 39.1845C1122.26 82.0737 1221.78 47.6923 1181.94 137.196C1142.1 226.701 1106.09 228.916 1124.9 284.709C1143.7 340.502 1194.21 369.79 1252.88 347.637C1291.99 332.868 1313.39 278.066 1317.07 183.232" stroke="#D0D5F6" stroke-width="2"/>
</g>
<defs>
<clipPath id="clip0_13_35">
<rect width="253.446" height="248.963" fill="white" transform="translate(0 471.037)"/>
</clipPath>
<clipPath id="clip1_13_35">
<rect width="264.252" height="425.228" fill="white" transform="translate(1014.77 46.805)"/>
</clipPath>
</defs>
</svg>
