<svg width="20" height="20" viewBox="0 0 20 20" fill="none" xmlns="http://www.w3.org/2000/svg">
<g clip-path="url(#clip0_184_199)">
<path d="M20 3.79875C19.2562 4.125 18.4637 4.34125 17.6375 4.44625C18.4875 3.93875 19.1362 3.14125 19.4412 2.18C18.6487 2.6525 17.7737 2.98625 16.8412 3.1725C16.0887 2.37125 15.0162 1.875 13.8462 1.875C11.5762 1.875 9.74873 3.7175 9.74873 5.97625C9.74873 6.30125 9.77623 6.61375 9.84373 6.91125C6.43498 6.745 3.41873 5.11125 1.39248 2.6225C1.03873 3.23625 0.831235 3.93875 0.831235 4.695C0.831235 6.115 1.56248 7.37375 2.65248 8.1025C1.99373 8.09 1.34748 7.89875 0.799985 7.5975C0.799985 7.61 0.799985 7.62625 0.799985 7.6425C0.799985 9.635 2.22123 11.29 4.08498 11.6712C3.75123 11.7625 3.38748 11.8062 3.00998 11.8062C2.74748 11.8062 2.48248 11.7913 2.23373 11.7362C2.76498 13.36 4.27248 14.5538 6.06499 14.5925C4.66998 15.6838 2.89873 16.3412 0.981235 16.3412C0.644985 16.3412 0.322485 16.3263 -1.52588e-05 16.285C1.81623 17.4563 3.96873 18.125 6.28998 18.125C13.835 18.125 17.96 11.875 17.96 6.4575C17.96 6.27625 17.9537 6.10125 17.945 5.9275C18.7587 5.35 19.4425 4.62875 20 3.79875Z" fill="#767F8C"/>
</g>
<defs>
<clipPath id="clip0_184_199">
<rect width="20" height="20" fill="white"/>
</clipPath>
</defs>
</svg>
